{"glyphs":{"0":{"ha":848,"x_min":-17,"x_max":695,"o":"m -17 -14 l -17 1031 l 695 1031 l 695 -14 l -17 -14 m 58 970 l 50 962 l 51 55 l 60 47 l 619 47 l 627 56 l 627 962 l 619 970 l 58 970 z "},"1":{"ha":848,"x_min":305,"x_max":373,"o":"m 373 1031 l 373 -14 l 305 -14 l 305 1031 l 373 1031 z "},"2":{"ha":848,"x_min":-17,"x_max":695,"o":"m 51 470 l 51 56 l 59 47 l 695 47 l 695 -14 l -17 -14 l -17 539 l 619 539 l 628 547 l 628 962 l 620 970 l -17 970 l -17 1031 l 695 1031 l 695 478 l 59 478 l 51 470 z "},"3":{"ha":848,"x_min":-17,"x_max":695,"o":"m -17 -14 l -17 47 l 619 47 l 627 56 l 627 470 l 619 478 l -17 478 l -17 539 l 618 539 l 627 547 l 627 962 l 619 970 l -17 970 l -17 1031 l 695 1031 l 695 -14 l -17 -14 z "},"4":{"ha":848,"x_min":-17,"x_max":695,"o":"m -17 1031 l 51 1031 l 51 547 l 59 539 l 619 539 l 627 547 l 627 1031 l 695 1031 l 695 -14 l 627 -14 l 627 470 l 619 478 l -17 478 l -17 1031 z "},"5":{"ha":848,"x_min":-17,"x_max":695,"o":"m 619 478 l -17 478 l -17 1031 l 695 1031 l 695 970 l 58 970 l 50 962 l 50 547 l 59 539 l 695 539 l 695 -14 l -17 -14 l -17 47 l 619 47 l 627 56 l 627 470 l 619 478 z "},"6":{"ha":848,"x_min":-17,"x_max":695,"o":"m 620 47 l 627 56 l 627 470 l 619 478 l 60 478 l 51 470 l 51 56 l 59 47 l 620 47 m -17 1031 l 51 1031 l 51 547 l 59 539 l 695 539 l 695 -14 l -17 -14 l -17 1031 z "},"7":{"ha":848,"x_min":-17,"x_max":695,"o":"m -17 970 l -17 1031 l 695 1031 l 695 -14 l 628 -14 l 628 962 l 619 970 l -17 970 z "},"8":{"ha":848,"x_min":-17,"x_max":695,"o":"m 51 962 l 51 547 l 59 539 l 619 539 l 627 547 l 627 962 l 619 970 l 59 970 l 51 962 m -17 -14 l -17 1031 l 695 1031 l 695 -14 l -17 -14 m 627 56 l 627 470 l 619 478 l 59 478 l 51 470 l 51 56 l 59 47 l 619 47 l 627 56 z "},"9":{"ha":848,"x_min":-17,"x_max":695,"o":"m 59 970 l 51 962 l 51 548 l 59 539 l 619 539 l 627 547 l 627 962 l 619 970 l 59 970 m 695 -14 l 627 -14 l 627 470 l 619 478 l -17 478 l -17 1031 l 695 1031 l 695 -14 z "},"\u0000":{"ha":0,"x_min":0,"x_max":0,"o":""}," ":{"ha":848,"x_min":0,"x_max":0,"o":""},"!":{"ha":848,"x_min":305,"x_max":373,"o":"m 373 1031 l 373 139 l 305 139 l 305 1031 l 373 1031 m 373 81 l 373 -14 l 305 -14 l 305 81 l 373 81 z "},"\"":{"ha":848,"x_min":119,"x_max":509,"o":"m 441 970 l 441 1031 l 509 1031 l 509 946 l 450 868 l 390 868 l 390 902 l 441 970 m 170 970 l 170 1031 l 237 1031 l 237 946 l 179 868 l 119 868 l 119 902 l 170 970 z "},"#":{"ha":848,"x_min":-17,"x_max":695,"o":"m 433 309 l 245 309 l 237 300 l 237 -14 l 170 -14 l 170 300 l 161 309 l -17 309 l -17 370 l 161 370 l 170 378 l 170 640 l 161 648 l -17 648 l -17 709 l 161 709 l 170 717 l 170 1031 l 237 1031 l 237 717 l 245 709 l 433 709 l 441 717 l 441 1031 l 509 1031 l 509 717 l 517 709 l 695 709 l 695 648 l 517 648 l 509 640 l 509 378 l 517 370 l 695 370 l 695 309 l 517 309 l 509 300 l 509 -14 l 441 -14 l 441 300 l 433 309 m 245 370 l 433 370 l 441 378 l 441 640 l 433 648 l 245 648 l 237 640 l 237 378 l 245 370 z "},"$":{"ha":848,"x_min":-17,"x_max":695,"o":"m 305 191 l 305 470 l 297 478 l -17 478 l -17 895 l 297 895 l 305 903 l 305 1031 l 373 1031 l 373 903 l 381 895 l 695 895 l 695 834 l 381 834 l 373 826 l 373 547 l 381 539 l 695 539 l 695 122 l 381 122 l 373 114 l 373 -14 l 305 -14 l 305 114 l 297 122 l -17 122 l -17 183 l 297 183 l 305 191 m 305 547 l 305 826 l 297 834 l 58 834 l 50 826 l 50 547 l 59 539 l 297 539 l 305 547 m 373 470 l 373 191 l 381 183 l 619 183 l 627 191 l 627 470 l 619 478 l 381 478 l 373 470 z "},"%":{"ha":848,"x_min":-17,"x_max":695,"o":"m 634 1031 l 695 1031 l 695 997 l 44 -14 l -17 -14 l -17 20 l 634 1031 m 356 1031 l 356 665 l -17 665 l -17 1031 l 356 1031 m 59 970 l 51 962 l 51 734 l 59 726 l 280 726 l 288 734 l 288 962 l 280 970 l 59 970 m 695 353 l 695 -14 l 322 -14 l 322 353 l 695 353 m 398 292 l 390 283 l 390 56 l 398 47 l 619 47 l 627 56 l 627 283 l 619 292 l 398 292 z "},"&":{"ha":848,"x_min":-17,"x_max":695,"o":"m 297 122 l -17 122 l -17 895 l 297 895 l 305 903 l 305 1031 l 373 1031 l 373 903 l 381 895 l 695 895 l 695 834 l 381 834 l 373 826 l 373 547 l 381 539 l 543 539 l 543 478 l 381 478 l 373 470 l 373 191 l 381 183 l 695 183 l 695 122 l 381 122 l 373 114 l 373 -14 l 305 -14 l 305 114 l 297 122 m 297 834 l 59 834 l 51 826 l 51 547 l 60 539 l 297 539 l 305 547 l 305 826 l 297 834 m 297 478 l 59 478 l 51 470 l 51 191 l 59 183 l 297 183 l 305 191 l 305 470 l 297 478 z "},"'":{"ha":848,"x_min":254,"x_max":373,"o":"m 305 970 l 305 1031 l 373 1031 l 373 946 l 315 868 l 254 868 l 254 902 l 305 970 z "},"(":{"ha":848,"x_min":136,"x_max":543,"o":"m 543 996 l 224 709 l 204 709 l 203 361 l 543 22 l 543 -14 l 484 -14 l 136 334 l 136 717 l 484 1031 l 543 1031 l 543 996 z "},")":{"ha":848,"x_min":136,"x_max":543,"o":"m 136 1031 l 194 1031 l 543 717 l 543 334 l 195 -14 l 136 -14 l 136 22 l 475 361 l 474 709 l 454 709 l 136 996 l 136 1031 z "},"*":{"ha":848,"x_min":-17,"x_max":695,"o":"m 399 478 l 695 20 l 695 -14 l 634 -14 l 373 392 l 373 -14 l 305 -14 l 305 392 l 44 -14 l -17 -14 l -17 20 l 279 478 l -17 478 l -17 539 l 279 539 l -17 997 l -17 1031 l 44 1031 l 305 625 l 305 1031 l 373 1031 l 373 625 l 634 1031 l 695 1031 l 695 997 l 399 539 l 695 539 l 695 478 l 399 478 z "},"+":{"ha":848,"x_min":-17,"x_max":695,"o":"m 381 539 l 695 539 l 695 478 l 381 478 l 373 470 l 373 -14 l 305 -14 l 305 470 l 297 478 l -17 478 l -17 539 l 297 539 l 305 547 l 305 1031 l 373 1031 l 373 547 l 381 539 z "},",":{"ha":848,"x_min":254,"x_max":373,"o":"m 305 20 l 305 81 l 373 81 l 373 -3 l 315 -81 l 254 -81 l 254 -47 l 305 20 z "},"-":{"ha":848,"x_min":-17,"x_max":695,"o":"m 695 539 l 695 478 l -17 478 l -17 539 l 695 539 z "},".":{"ha":848,"x_min":305,"x_max":373,"o":"m 373 81 l 373 -14 l 305 -14 l 305 81 l 373 81 z "},"/":{"ha":848,"x_min":-17,"x_max":695,"o":"m 634 1031 l 695 1031 l 695 997 l 44 -14 l -17 -14 l -17 20 l 634 1031 z "},":":{"ha":848,"x_min":305,"x_max":373,"o":"m 373 81 l 373 -14 l 305 -14 l 305 81 l 373 81 m 373 556 l 373 461 l 305 461 l 305 556 l 373 556 z "},";":{"ha":848,"x_min":254,"x_max":373,"o":"m 373 556 l 373 461 l 305 461 l 305 556 l 373 556 m 305 20 l 305 81 l 373 81 l 373 -3 l 315 -81 l 254 -81 l 254 -47 l 305 20 z "},"<":{"ha":848,"x_min":-24,"x_max":695,"o":"m -24 526 l 637 1031 l 695 1031 l 695 995 l 75 526 l 695 22 l 695 -14 l 637 -14 l -24 526 z "},"=":{"ha":848,"x_min":-17,"x_max":695,"o":"m 695 370 l 695 309 l -17 309 l -17 370 l 695 370 m 695 709 l 695 648 l -17 648 l -17 709 l 695 709 z "},">":{"ha":848,"x_min":-17,"x_max":702,"o":"m 41 -14 l -17 -14 l -17 22 l 603 526 l -17 995 l -17 1031 l 41 1031 l 702 526 l 41 -14 z "},"?":{"ha":848,"x_min":-17,"x_max":695,"o":"m 373 470 l 373 139 l 305 139 l 305 539 l 619 539 l 628 547 l 628 962 l 620 970 l -17 970 l -17 1031 l 695 1031 l 695 478 l 381 478 l 373 470 m 373 81 l 373 -14 l 305 -14 l 305 81 l 373 81 z "},"@":{"ha":848,"x_min":-17,"x_max":695,"o":"m 627 717 l 627 962 l 619 970 l 58 970 l 50 962 l 50 56 l 59 47 l 695 47 l 695 -14 l -17 -14 l -17 1031 l 695 1031 l 695 308 l 136 308 l 136 709 l 619 709 l 627 717 m 627 640 l 619 648 l 211 648 l 203 640 l 203 377 l 212 369 l 619 369 l 627 378 l 627 640 z "},"A":{"ha":848,"x_min":-17,"x_max":695,"o":"m 627 378 l 627 690 l 339 962 l 51 690 l 51 378 l 59 370 l 619 370 l 627 378 m 59 309 l 51 300 l 51 -14 l -17 -14 l -17 717 l 315 1031 l 363 1031 l 695 717 l 695 -14 l 627 -14 l 627 300 l 619 309 l 59 309 z "},"B":{"ha":848,"x_min":-17,"x_max":695,"o":"m -17 -14 l -17 1031 l 534 1031 l 695 869 l 695 640 l 564 509 l 695 378 l 695 148 l 534 -14 l -17 -14 m 500 970 l 59 970 l 51 962 l 51 547 l 60 539 l 500 539 l 627 666 l 627 843 l 500 970 m 500 478 l 59 478 l 51 470 l 51 56 l 59 47 l 500 47 l 627 174 l 627 351 l 500 478 z "},"C":{"ha":848,"x_min":-17,"x_max":695,"o":"m 695 47 l 695 -14 l -17 -14 l -17 1031 l 695 1031 l 695 970 l 58 970 l 50 962 l 50 56 l 59 47 l 695 47 z "},"D":{"ha":848,"x_min":-17,"x_max":695,"o":"m 315 970 l 58 970 l 50 962 l 51 55 l 60 47 l 305 47 l 305 39 l 627 361 l 627 709 l 606 709 l 315 970 m 695 334 l 347 -14 l -17 -14 l -17 1031 l 347 1031 l 695 717 l 695 334 z "},"E":{"ha":848,"x_min":-17,"x_max":695,"o":"m -17 -14 l -17 1031 l 695 1031 l 695 970 l 59 970 l 51 962 l 51 547 l 60 539 l 543 539 l 543 478 l 59 478 l 51 470 l 51 56 l 59 47 l 695 47 l 695 -14 l -17 -14 z "},"F":{"ha":848,"x_min":-17,"x_max":695,"o":"m 543 539 l 543 478 l 59 478 l 51 470 l 51 -14 l -17 -14 l -17 1031 l 695 1031 l 695 970 l 59 970 l 51 962 l 51 547 l 60 539 l 543 539 z "},"G":{"ha":848,"x_min":-17,"x_max":695,"o":"m 695 -14 l -17 -14 l -17 1031 l 695 1031 l 695 665 l 627 665 l 627 962 l 619 970 l 58 970 l 50 962 l 50 56 l 59 47 l 627 47 l 627 300 l 619 309 l 305 309 l 305 370 l 695 370 l 695 -14 z "},"H":{"ha":848,"x_min":-17,"x_max":695,"o":"m 51 470 l 51 -14 l -17 -14 l -17 1031 l 51 1031 l 51 547 l 59 539 l 619 539 l 627 547 l 627 1031 l 695 1031 l 695 -14 l 627 -14 l 627 470 l 619 478 l 59 478 l 51 470 z "},"I":{"ha":848,"x_min":-17,"x_max":695,"o":"m -17 970 l -17 1031 l 695 1031 l 695 970 l 381 970 l 373 962 l 373 56 l 381 47 l 695 47 l 695 -14 l -17 -14 l -17 47 l 297 47 l 305 56 l 305 962 l 297 970 l -17 970 z "},"J":{"ha":848,"x_min":-17,"x_max":695,"o":"m 627 962 l 627 1031 l 695 1031 l 695 -14 l 331 -14 l -17 334 l -17 370 l 42 370 l 373 39 l 373 47 l 618 47 l 627 55 l 628 962 l 627 962 z "},"K":{"ha":848,"x_min":-17,"x_max":695,"o":"m -17 1031 l 51 1031 l 51 590 l 655 1031 l 695 1031 l 695 977 l 68 519 l 68 498 l 695 40 l 695 -14 l 654 -14 l 51 435 l 51 -14 l -17 -14 l -17 1031 z "},"L":{"ha":848,"x_min":-17,"x_max":695,"o":"m 695 47 l 695 -14 l -17 -14 l -17 1031 l 50 1031 l 50 56 l 59 47 l 695 47 z "},"M":{"ha":848,"x_min":-17,"x_max":695,"o":"m 695 -14 l 627 -14 l 627 928 l 364 665 l 314 665 l 51 928 l 51 -14 l -17 -14 l -17 1031 l 42 1031 l 339 734 l 636 1031 l 695 1031 l 695 -14 z "},"N":{"ha":848,"x_min":-17,"x_max":695,"o":"m 51 908 l 51 -14 l -17 -14 l -17 1031 l 61 1031 l 627 109 l 627 1031 l 695 1031 l 695 -14 l 617 -14 l 51 908 z "},"O":{"ha":848,"x_min":-17,"x_max":695,"o":"m -17 -14 l -17 1031 l 695 1031 l 695 -14 l -17 -14 m 58 970 l 50 962 l 51 55 l 60 47 l 619 47 l 627 56 l 627 962 l 619 970 l 58 970 z "},"P":{"ha":848,"x_min":-17,"x_max":695,"o":"m 59 970 l 51 962 l 51 547 l 60 539 l 619 539 l 627 548 l 627 962 l 620 970 l 59 970 m -17 1031 l 695 1031 l 695 478 l 59 478 l 51 470 l 51 -14 l -17 -14 l -17 1031 z "},"Q":{"ha":848,"x_min":-17,"x_max":695,"o":"m 305 47 l 305 39 l 448 182 l 305 317 l 305 370 l 347 370 l 495 229 l 627 361 l 627 962 l 619 970 l 58 970 l 50 962 l 51 55 l 60 47 l 305 47 m 347 -14 l -17 -14 l -17 1031 l 695 1031 l 695 334 l 543 182 l 695 39 l 695 -14 l 654 -14 l 496 136 l 347 -14 z "},"R":{"ha":848,"x_min":-17,"x_max":695,"o":"m 59 970 l 51 962 l 51 547 l 60 539 l 619 539 l 627 548 l 627 962 l 620 970 l 59 970 m -17 1031 l 695 1031 l 695 478 l 105 478 l 695 40 l 695 -14 l 654 -14 l 51 435 l 51 -14 l -17 -14 l -17 1031 z "},"S":{"ha":848,"x_min":-17,"x_max":695,"o":"m 619 478 l -17 478 l -17 1031 l 695 1031 l 695 970 l 58 970 l 50 962 l 50 547 l 59 539 l 695 539 l 695 -14 l -17 -14 l -17 47 l 619 47 l 627 56 l 627 470 l 619 478 z "},"T":{"ha":848,"x_min":-17,"x_max":695,"o":"m -17 970 l -17 1031 l 695 1031 l 695 970 l 381 970 l 373 962 l 373 -14 l 305 -14 l 305 962 l 297 970 l -17 970 z "},"U":{"ha":848,"x_min":-17,"x_max":695,"o":"m 627 1031 l 695 1031 l 695 -14 l -17 -14 l -17 1031 l 51 1031 l 51 962 l 50 962 l 51 55 l 60 47 l 619 47 l 627 56 l 627 1031 z "},"V":{"ha":848,"x_min":-17,"x_max":695,"o":"m -17 999 l -17 1031 l 47 1031 l 339 106 l 631 1031 l 695 1031 l 695 999 l 369 -14 l 309 -14 l -17 999 z "},"W":{"ha":848,"x_min":-17,"x_max":695,"o":"m 695 -14 l 636 -14 l 339 283 l 42 -14 l -17 -14 l -17 1031 l 51 1031 l 51 90 l 314 353 l 364 353 l 627 90 l 627 1031 l 695 1031 l 695 -14 z "},"X":{"ha":848,"x_min":-17,"x_max":695,"o":"m 298 509 l -17 997 l -17 1031 l 44 1031 l 339 572 l 634 1031 l 695 1031 l 695 997 l 380 509 l 695 20 l 695 -14 l 634 -14 l 339 445 l 44 -14 l -17 -14 l -17 20 l 298 509 z "},"Y":{"ha":848,"x_min":-17,"x_max":695,"o":"m -17 996 l -17 1031 l 42 1031 l 339 734 l 636 1031 l 695 1031 l 695 996 l 373 673 l 373 -14 l 305 -14 l 305 673 l -17 996 z "},"Z":{"ha":848,"x_min":-17,"x_max":695,"o":"m 595 970 l -17 970 l -17 1031 l 695 1031 l 695 997 l 83 47 l 695 47 l 695 -14 l -17 -14 l -17 20 l 595 970 z "},"[":{"ha":848,"x_min":153,"x_max":526,"o":"m 526 47 l 526 -14 l 153 -14 l 153 1031 l 526 1031 l 526 970 l 228 970 l 220 962 l 220 56 l 229 47 l 526 47 z "},"\\":{"ha":848,"x_min":-17,"x_max":695,"o":"m 695 20 l 695 -14 l 634 -14 l -17 997 l -17 1031 l 44 1031 l 695 20 z "},"]":{"ha":848,"x_min":153,"x_max":526,"o":"m 450 47 l 458 56 l 458 962 l 450 970 l 153 970 l 153 1031 l 526 1031 l 526 -14 l 153 -14 l 153 47 l 450 47 z "},"^":{"ha":848,"x_min":-17,"x_max":695,"o":"m 695 1072 l 636 1072 l 339 1369 l 42 1072 l -17 1072 l -17 1107 l 314 1438 l 364 1438 l 695 1107 l 695 1072 z "},"_":{"ha":848,"x_min":-17,"x_max":695,"o":"m 695 -139 l 695 -200 l -17 -200 l -17 -139 l 695 -139 z "},"`":{"ha":848,"x_min":136,"x_max":543,"o":"m 543 1072 l 484 1072 l 136 1402 l 136 1438 l 194 1438 l 543 1107 l 543 1072 z "},"a":{"ha":848,"x_min":-17,"x_max":695,"o":"m 627 378 l 627 690 l 339 962 l 51 690 l 51 378 l 59 370 l 619 370 l 627 378 m 59 309 l 51 300 l 51 -14 l -17 -14 l -17 717 l 315 1031 l 363 1031 l 695 717 l 695 -14 l 627 -14 l 627 300 l 619 309 l 59 309 z "},"b":{"ha":848,"x_min":-17,"x_max":695,"o":"m -17 -14 l -17 1031 l 534 1031 l 695 869 l 695 640 l 564 509 l 695 378 l 695 148 l 534 -14 l -17 -14 m 500 970 l 59 970 l 51 962 l 51 547 l 60 539 l 500 539 l 627 666 l 627 843 l 500 970 m 500 478 l 59 478 l 51 470 l 51 56 l 59 47 l 500 47 l 627 174 l 627 351 l 500 478 z "},"c":{"ha":848,"x_min":-17,"x_max":695,"o":"m 695 47 l 695 -14 l -17 -14 l -17 1031 l 695 1031 l 695 970 l 58 970 l 50 962 l 50 56 l 59 47 l 695 47 z "},"d":{"ha":848,"x_min":-17,"x_max":695,"o":"m 315 970 l 58 970 l 50 962 l 51 55 l 60 47 l 305 47 l 305 39 l 627 361 l 627 709 l 606 709 l 315 970 m 695 334 l 347 -14 l -17 -14 l -17 1031 l 347 1031 l 695 717 l 695 334 z "},"e":{"ha":848,"x_min":-17,"x_max":695,"o":"m -17 -14 l -17 1031 l 695 1031 l 695 970 l 59 970 l 51 962 l 51 547 l 60 539 l 543 539 l 543 478 l 59 478 l 51 470 l 51 56 l 59 47 l 695 47 l 695 -14 l -17 -14 z "},"f":{"ha":848,"x_min":-17,"x_max":695,"o":"m 543 539 l 543 478 l 59 478 l 51 470 l 51 -14 l -17 -14 l -17 1031 l 695 1031 l 695 970 l 59 970 l 51 962 l 51 547 l 60 539 l 543 539 z "},"g":{"ha":848,"x_min":-17,"x_max":695,"o":"m 695 -14 l -17 -14 l -17 1031 l 695 1031 l 695 665 l 627 665 l 627 962 l 619 970 l 58 970 l 50 962 l 50 56 l 59 47 l 627 47 l 627 300 l 619 309 l 305 309 l 305 370 l 695 370 l 695 -14 z "},"h":{"ha":848,"x_min":-17,"x_max":695,"o":"m 51 470 l 51 -14 l -17 -14 l -17 1031 l 51 1031 l 51 547 l 59 539 l 619 539 l 627 547 l 627 1031 l 695 1031 l 695 -14 l 627 -14 l 627 470 l 619 478 l 59 478 l 51 470 z "},"i":{"ha":848,"x_min":-17,"x_max":695,"o":"m -17 970 l -17 1031 l 695 1031 l 695 970 l 381 970 l 373 962 l 373 56 l 381 47 l 695 47 l 695 -14 l -17 -14 l -17 47 l 297 47 l 305 56 l 305 962 l 297 970 l -17 970 z "},"j":{"ha":848,"x_min":-17,"x_max":695,"o":"m 627 962 l 627 1031 l 695 1031 l 695 -14 l 331 -14 l -17 334 l -17 370 l 42 370 l 373 39 l 373 47 l 618 47 l 627 55 l 628 962 l 627 962 z "},"k":{"ha":848,"x_min":-17,"x_max":695,"o":"m -17 1031 l 51 1031 l 51 590 l 655 1031 l 695 1031 l 695 977 l 68 519 l 68 498 l 695 40 l 695 -14 l 654 -14 l 51 435 l 51 -14 l -17 -14 l -17 1031 z "},"l":{"ha":848,"x_min":-17,"x_max":695,"o":"m 695 47 l 695 -14 l -17 -14 l -17 1031 l 50 1031 l 50 56 l 59 47 l 695 47 z "},"m":{"ha":848,"x_min":-17,"x_max":695,"o":"m 695 -14 l 627 -14 l 627 928 l 364 665 l 314 665 l 51 928 l 51 -14 l -17 -14 l -17 1031 l 42 1031 l 339 734 l 636 1031 l 695 1031 l 695 -14 z "},"n":{"ha":848,"x_min":-17,"x_max":695,"o":"m 51 908 l 51 -14 l -17 -14 l -17 1031 l 61 1031 l 627 109 l 627 1031 l 695 1031 l 695 -14 l 617 -14 l 51 908 z "},"o":{"ha":848,"x_min":-17,"x_max":695,"o":"m -17 -14 l -17 1031 l 695 1031 l 695 -14 l -17 -14 m 58 970 l 50 962 l 51 55 l 60 47 l 619 47 l 627 56 l 627 962 l 619 970 l 58 970 z "},"p":{"ha":848,"x_min":-17,"x_max":695,"o":"m 59 970 l 51 962 l 51 547 l 60 539 l 619 539 l 627 548 l 627 962 l 620 970 l 59 970 m -17 1031 l 695 1031 l 695 478 l 59 478 l 51 470 l 51 -14 l -17 -14 l -17 1031 z "},"q":{"ha":848,"x_min":-17,"x_max":695,"o":"m 305 47 l 305 39 l 448 182 l 305 317 l 305 370 l 347 370 l 495 229 l 627 361 l 627 962 l 619 970 l 58 970 l 50 962 l 51 55 l 60 47 l 305 47 m 347 -14 l -17 -14 l -17 1031 l 695 1031 l 695 334 l 543 182 l 695 39 l 695 -14 l 654 -14 l 496 136 l 347 -14 z "},"r":{"ha":848,"x_min":-17,"x_max":695,"o":"m 59 970 l 51 962 l 51 547 l 60 539 l 619 539 l 627 548 l 627 962 l 620 970 l 59 970 m -17 1031 l 695 1031 l 695 478 l 105 478 l 695 40 l 695 -14 l 654 -14 l 51 435 l 51 -14 l -17 -14 l -17 1031 z "},"s":{"ha":848,"x_min":-17,"x_max":695,"o":"m 619 478 l -17 478 l -17 1031 l 695 1031 l 695 970 l 58 970 l 50 962 l 50 547 l 59 539 l 695 539 l 695 -14 l -17 -14 l -17 47 l 619 47 l 627 56 l 627 470 l 619 478 z "},"t":{"ha":848,"x_min":-17,"x_max":695,"o":"m -17 970 l -17 1031 l 695 1031 l 695 970 l 381 970 l 373 962 l 373 -14 l 305 -14 l 305 962 l 297 970 l -17 970 z "},"u":{"ha":848,"x_min":-17,"x_max":695,"o":"m 627 1031 l 695 1031 l 695 -14 l -17 -14 l -17 1031 l 51 1031 l 51 962 l 50 962 l 51 55 l 60 47 l 619 47 l 627 56 l 627 1031 z "},"v":{"ha":848,"x_min":-17,"x_max":695,"o":"m -17 999 l -17 1031 l 47 1031 l 339 106 l 631 1031 l 695 1031 l 695 999 l 369 -14 l 309 -14 l -17 999 z "},"w":{"ha":848,"x_min":-17,"x_max":695,"o":"m 695 -14 l 636 -14 l 339 283 l 42 -14 l -17 -14 l -17 1031 l 51 1031 l 51 90 l 314 353 l 364 353 l 627 90 l 627 1031 l 695 1031 l 695 -14 z "},"x":{"ha":848,"x_min":-17,"x_max":695,"o":"m 298 509 l -17 997 l -17 1031 l 44 1031 l 339 572 l 634 1031 l 695 1031 l 695 997 l 380 509 l 695 20 l 695 -14 l 634 -14 l 339 445 l 44 -14 l -17 -14 l -17 20 l 298 509 z "},"y":{"ha":848,"x_min":-17,"x_max":695,"o":"m -17 996 l -17 1031 l 42 1031 l 339 734 l 636 1031 l 695 1031 l 695 996 l 373 673 l 373 -14 l 305 -14 l 305 673 l -17 996 z "},"z":{"ha":848,"x_min":-17,"x_max":695,"o":"m 595 970 l -17 970 l -17 1031 l 695 1031 l 695 997 l 83 47 l 695 47 l 695 -14 l -17 -14 l -17 20 l 595 970 z "},"{":{"ha":848,"x_min":-17,"x_max":695,"o":"m -17 478 l -17 539 l 178 539 l 305 666 l 305 869 l 467 1031 l 695 1031 l 695 970 l 500 970 l 373 843 l 373 640 l 242 509 l 373 378 l 373 174 l 500 47 l 695 47 l 695 -14 l 467 -14 l 305 148 l 305 351 l 178 478 l -17 478 z "},"|":{"ha":848,"x_min":305,"x_max":373,"o":"m 373 1200 l 373 -183 l 305 -183 l 305 1200 l 373 1200 z "},"}":{"ha":848,"x_min":-17,"x_max":695,"o":"m 500 478 l 373 351 l 373 148 l 212 -14 l -17 -14 l -17 47 l 178 47 l 305 174 l 305 378 l 436 509 l 305 640 l 305 843 l 178 970 l -17 970 l -17 1031 l 212 1031 l 373 869 l 373 666 l 500 539 l 695 539 l 695 478 l 500 478 z "},"~":{"ha":848,"x_min":-17,"x_max":695,"o":"m 163 1377 l 59 1377 l 51 1369 l 51 1072 l -17 1072 l -17 1438 l 194 1438 l 515 1133 l 619 1133 l 627 1141 l 627 1438 l 695 1438 l 695 1072 l 484 1072 l 163 1377 z "},"¡":{"ha":848,"x_min":305,"x_max":373,"o":"m 305 -14 l 305 878 l 373 878 l 373 -14 l 305 -14 m 305 936 l 305 1031 l 373 1031 l 373 936 l 305 936 z "},"¢":{"ha":848,"x_min":-17,"x_max":695,"o":"m 373 826 l 373 191 l 381 183 l 695 183 l 695 122 l 381 122 l 373 114 l 373 -14 l 305 -14 l 305 114 l 297 122 l -17 122 l -17 895 l 297 895 l 305 903 l 305 1031 l 373 1031 l 373 903 l 381 895 l 695 895 l 695 834 l 381 834 l 373 826 m 305 191 l 305 826 l 297 834 l 58 834 l 50 826 l 50 191 l 59 183 l 297 183 l 305 191 z "},"£":{"ha":848,"x_min":-17,"x_max":695,"o":"m 305 547 l 305 1031 l 695 1031 l 695 970 l 381 970 l 373 962 l 373 547 l 382 539 l 543 539 l 543 478 l 381 478 l 373 470 l 373 56 l 381 47 l 695 47 l 695 -14 l -17 -14 l -17 47 l 297 47 l 305 56 l 305 470 l 297 478 l 136 478 l 136 539 l 297 539 l 305 547 z "},"¤":{"ha":848,"x_min":-17,"x_max":695,"o":"m 229 631 l 220 623 l 220 395 l 229 387 l 450 387 l 458 395 l 458 623 l 450 631 l 229 631 m 262 326 l 44 -14 l -17 -14 l -17 20 l 180 326 l 153 326 l 153 692 l 180 692 l -17 997 l -17 1031 l 44 1031 l 262 692 l 416 692 l 634 1031 l 695 1031 l 695 997 l 498 692 l 526 692 l 526 326 l 498 326 l 695 20 l 695 -14 l 634 -14 l 416 326 l 262 326 z "},"¥":{"ha":848,"x_min":-17,"x_max":695,"o":"m 391 692 l 695 692 l 695 631 l 381 631 l 373 623 l 373 378 l 381 370 l 695 370 l 695 309 l 381 309 l 373 300 l 373 -14 l 305 -14 l 305 300 l 297 309 l -17 309 l -17 370 l 297 370 l 305 378 l 305 623 l 297 631 l -17 631 l -17 692 l 288 692 l -17 996 l -17 1031 l 42 1031 l 339 734 l 636 1031 l 695 1031 l 695 996 l 391 692 z "},"¦":{"ha":848,"x_min":305,"x_max":373,"o":"m 305 529 l 305 1200 l 373 1200 l 373 529 l 305 529 m 373 488 l 373 -183 l 305 -183 l 305 488 l 373 488 z "},"§":{"ha":848,"x_min":-17,"x_max":695,"o":"m 229 631 l 220 623 l 220 395 l 229 387 l 450 387 l 458 395 l 458 623 l 450 631 l 229 631 m 526 539 l 695 539 l 695 -14 l -17 -14 l -17 47 l 619 47 l 627 56 l 627 470 l 619 478 l 526 478 l 526 326 l 153 326 l 153 478 l -17 478 l -17 1031 l 695 1031 l 695 970 l 58 970 l 50 962 l 50 547 l 59 539 l 153 539 l 153 692 l 526 692 l 526 539 z "},"¨":{"ha":848,"x_min":153,"x_max":526,"o":"m 526 1234 l 526 1139 l 458 1139 l 458 1234 l 526 1234 m 220 1234 l 220 1139 l 153 1139 l 153 1234 l 220 1234 z "},"©":{"ha":848,"x_min":-17,"x_max":695,"o":"m 178 970 l 51 843 l 51 174 l 178 47 l 500 47 l 627 174 l 627 843 l 500 970 l 178 970 m 144 -14 l -17 148 l -17 869 l 144 1031 l 534 1031 l 695 869 l 695 148 l 534 -14 l 144 -14 m 153 156 l 153 861 l 526 861 l 526 800 l 229 800 l 220 792 l 220 225 l 229 217 l 526 217 l 526 156 l 153 156 z "},"ª":{"ha":1119,"x_min":0,"x_max":1017,"o":"m 136 0 q 0 136 0 0 l 0 882 q 136 1017 0 1017 l 882 1017 q 1017 882 1017 1017 l 1017 136 q 882 0 1017 0 l 136 0 m 882 17 q 1000 136 1000 17 l 1000 882 q 882 1000 1000 1000 l 136 1000 q 17 882 18 1000 l 17 136 q 136 17 18 17 l 882 17 z "},"«":{"ha":1119,"x_min":0,"x_max":1017,"o":"m 136 0 q 0 136 0 0 l 0 882 q 136 1017 0 1017 l 882 1017 q 1017 882 1017 1017 l 1017 136 q 882 0 1017 0 l 136 0 m 882 17 q 1000 136 1000 17 l 1000 882 q 882 1000 1000 1000 l 136 1000 q 17 882 18 1000 l 17 136 q 136 17 18 17 l 882 17 z "},"¬":{"ha":688,"x_min":42,"x_max":646,"o":"m 42 534 l 646 534 l 646 182 l 636 173 l 545 173 l 545 439 l 42 439 l 42 534 z "},"®":{"ha":848,"x_min":-17,"x_max":695,"o":"m 178 970 l 51 843 l 51 174 l 178 47 l 500 47 l 627 174 l 627 843 l 500 970 l 178 970 m 144 -14 l -17 148 l -17 869 l 144 1031 l 534 1031 l 695 869 l 695 148 l 534 -14 l 144 -14 m 229 800 l 220 792 l 220 547 l 229 539 l 450 539 l 458 548 l 458 792 l 450 800 l 229 800 m 153 861 l 526 861 l 526 478 l 267 478 l 526 208 l 526 156 l 484 156 l 220 427 l 220 156 l 153 156 l 153 861 z "},"¯":{"ha":1119,"x_min":0,"x_max":1017,"o":"m 136 0 q 0 136 0 0 l 0 882 q 136 1017 0 1017 l 882 1017 q 1017 882 1017 1017 l 1017 136 q 882 0 1017 0 l 136 0 m 882 17 q 1000 136 1000 17 l 1000 882 q 882 1000 1000 1000 l 136 1000 q 17 882 18 1000 l 17 136 q 136 17 18 17 l 882 17 z "},"°":{"ha":1119,"x_min":0,"x_max":1017,"o":"m 136 0 q 0 136 0 0 l 0 882 q 136 1017 0 1017 l 882 1017 q 1017 882 1017 1017 l 1017 136 q 882 0 1017 0 l 136 0 m 882 17 q 1000 136 1000 17 l 1000 882 q 882 1000 1000 1000 l 136 1000 q 17 882 18 1000 l 17 136 q 136 17 18 17 l 882 17 z "},"±":{"ha":1119,"x_min":0,"x_max":1017,"o":"m 136 0 q 0 136 0 0 l 0 882 q 136 1017 0 1017 l 882 1017 q 1017 882 1017 1017 l 1017 136 q 882 0 1017 0 l 136 0 m 882 17 q 1000 136 1000 17 l 1000 882 q 882 1000 1000 1000 l 136 1000 q 17 882 18 1000 l 17 136 q 136 17 18 17 l 882 17 z "},"²":{"ha":1119,"x_min":0,"x_max":1017,"o":"m 136 0 q 0 136 0 0 l 0 882 q 136 1017 0 1017 l 882 1017 q 1017 882 1017 1017 l 1017 136 q 882 0 1017 0 l 136 0 m 882 17 q 1000 136 1000 17 l 1000 882 q 882 1000 1000 1000 l 136 1000 q 17 882 18 1000 l 17 136 q 136 17 18 17 l 882 17 z "},"³":{"ha":1119,"x_min":0,"x_max":1017,"o":"m 136 0 q 0 136 0 0 l 0 882 q 136 1017 0 1017 l 882 1017 q 1017 882 1017 1017 l 1017 136 q 882 0 1017 0 l 136 0 m 882 17 q 1000 136 1000 17 l 1000 882 q 882 1000 1000 1000 l 136 1000 q 17 882 18 1000 l 17 136 q 136 17 18 17 l 882 17 z "},"´":{"ha":848,"x_min":136,"x_max":543,"o":"m 136 1107 l 484 1438 l 543 1438 l 543 1402 l 194 1072 l 136 1072 l 136 1107 z "},"µ":{"ha":848,"x_min":-17,"x_max":695,"o":"m 51 361 l 373 39 l 373 47 l 618 47 l 627 55 l 628 962 l 627 962 l 627 1031 l 695 1031 l 695 -14 l 331 -14 l 51 267 l 51 -14 l -17 -14 l -17 1031 l 51 1031 l 51 361 z "},"¶":{"ha":1119,"x_min":0,"x_max":1017,"o":"m 136 0 q 0 136 0 0 l 0 882 q 136 1017 0 1017 l 882 1017 q 1017 882 1017 1017 l 1017 136 q 882 0 1017 0 l 136 0 m 882 17 q 1000 136 1000 17 l 1000 882 q 882 1000 1000 1000 l 136 1000 q 17 882 18 1000 l 17 136 q 136 17 18 17 l 882 17 z "},"·":{"ha":848,"x_min":305,"x_max":373,"o":"m 373 556 l 373 461 l 305 461 l 305 556 l 373 556 z "},"¸":{"ha":848,"x_min":-17,"x_max":373,"o":"m 373 47 l 373 -22 l 212 -183 l -17 -183 l -17 -122 l 178 -122 l 305 5 l 305 47 l 373 47 z "},"¹":{"ha":1119,"x_min":0,"x_max":1017,"o":"m 136 0 q 0 136 0 0 l 0 882 q 136 1017 0 1017 l 882 1017 q 1017 882 1017 1017 l 1017 136 q 882 0 1017 0 l 136 0 m 882 17 q 1000 136 1000 17 l 1000 882 q 882 1000 1000 1000 l 136 1000 q 17 882 18 1000 l 17 136 q 136 17 18 17 l 882 17 z "},"º":{"ha":1119,"x_min":0,"x_max":1017,"o":"m 136 0 q 0 136 0 0 l 0 882 q 136 1017 0 1017 l 882 1017 q 1017 882 1017 1017 l 1017 136 q 882 0 1017 0 l 136 0 m 882 17 q 1000 136 1000 17 l 1000 882 q 882 1000 1000 1000 l 136 1000 q 17 882 18 1000 l 17 136 q 136 17 18 17 l 882 17 z "},"»":{"ha":1119,"x_min":0,"x_max":1017,"o":"m 136 0 q 0 136 0 0 l 0 882 q 136 1017 0 1017 l 882 1017 q 1017 882 1017 1017 l 1017 136 q 882 0 1017 0 l 136 0 m 882 17 q 1000 136 1000 17 l 1000 882 q 882 1000 1000 1000 l 136 1000 q 17 882 18 1000 l 17 136 q 136 17 18 17 l 882 17 z "},"¼":{"ha":1119,"x_min":0,"x_max":1017,"o":"m 136 0 q 0 136 0 0 l 0 882 q 136 1017 0 1017 l 882 1017 q 1017 882 1017 1017 l 1017 136 q 882 0 1017 0 l 136 0 m 882 17 q 1000 136 1000 17 l 1000 882 q 882 1000 1000 1000 l 136 1000 q 17 882 18 1000 l 17 136 q 136 17 18 17 l 882 17 z "},"½":{"ha":1119,"x_min":0,"x_max":1017,"o":"m 136 0 q 0 136 0 0 l 0 882 q 136 1017 0 1017 l 882 1017 q 1017 882 1017 1017 l 1017 136 q 882 0 1017 0 l 136 0 m 882 17 q 1000 136 1000 17 l 1000 882 q 882 1000 1000 1000 l 136 1000 q 17 882 18 1000 l 17 136 q 136 17 18 17 l 882 17 z "},"¾":{"ha":1119,"x_min":0,"x_max":1017,"o":"m 136 0 q 0 136 0 0 l 0 882 q 136 1017 0 1017 l 882 1017 q 1017 882 1017 1017 l 1017 136 q 882 0 1017 0 l 136 0 m 882 17 q 1000 136 1000 17 l 1000 882 q 882 1000 1000 1000 l 136 1000 q 17 882 18 1000 l 17 136 q 136 17 18 17 l 882 17 z "},"¿":{"ha":848,"x_min":-17,"x_max":695,"o":"m 305 547 l 305 878 l 373 878 l 373 478 l 59 478 l 50 470 l 50 56 l 58 47 l 695 47 l 695 -14 l -17 -14 l -17 539 l 297 539 l 305 547 m 305 936 l 305 1031 l 373 1031 l 373 936 l 305 936 z "},"À":{"ha":848,"x_min":-17,"x_max":695,"o":"m 627 378 l 627 690 l 339 962 l 51 690 l 51 378 l 59 370 l 619 370 l 627 378 m 59 309 l 51 300 l 51 -14 l -17 -14 l -17 717 l 315 1031 l 363 1031 l 695 717 l 695 -14 l 627 -14 l 627 300 l 619 309 l 59 309 m 543 1072 l 484 1072 l 136 1402 l 136 1438 l 194 1438 l 543 1107 l 543 1072 z "},"Á":{"ha":848,"x_min":-17,"x_max":695,"o":"m 627 378 l 627 690 l 339 962 l 51 690 l 51 378 l 59 370 l 619 370 l 627 378 m 59 309 l 51 300 l 51 -14 l -17 -14 l -17 717 l 315 1031 l 363 1031 l 695 717 l 695 -14 l 627 -14 l 627 300 l 619 309 l 59 309 m 136 1107 l 484 1438 l 543 1438 l 543 1402 l 194 1072 l 136 1072 l 136 1107 z "},"Â":{"ha":848,"x_min":-17,"x_max":695,"o":"m 627 378 l 627 690 l 339 962 l 51 690 l 51 378 l 59 370 l 619 370 l 627 378 m 59 309 l 51 300 l 51 -14 l -17 -14 l -17 717 l 315 1031 l 363 1031 l 695 717 l 695 -14 l 627 -14 l 627 300 l 619 309 l 59 309 m 695 1072 l 636 1072 l 339 1369 l 42 1072 l -17 1072 l -17 1107 l 314 1438 l 364 1438 l 695 1107 l 695 1072 z "},"Ã":{"ha":848,"x_min":-17,"x_max":695,"o":"m 627 378 l 627 690 l 339 962 l 51 690 l 51 378 l 59 370 l 619 370 l 627 378 m 59 309 l 51 300 l 51 -14 l -17 -14 l -17 717 l 315 1031 l 363 1031 l 695 717 l 695 -14 l 627 -14 l 627 300 l 619 309 l 59 309 m 163 1377 l 59 1377 l 51 1369 l 51 1072 l -17 1072 l -17 1438 l 194 1438 l 515 1133 l 619 1133 l 627 1141 l 627 1438 l 695 1438 l 695 1072 l 484 1072 l 163 1377 z "},"Ä":{"ha":848,"x_min":-17,"x_max":695,"o":"m 627 378 l 627 690 l 339 962 l 51 690 l 51 378 l 59 370 l 619 370 l 627 378 m 59 309 l 51 300 l 51 -14 l -17 -14 l -17 717 l 315 1031 l 363 1031 l 695 717 l 695 -14 l 627 -14 l 627 300 l 619 309 l 59 309 m 526 1234 l 526 1139 l 458 1139 l 458 1234 l 526 1234 m 220 1234 l 220 1139 l 153 1139 l 153 1234 l 220 1234 z "},"Å":{"ha":848,"x_min":-17,"x_max":695,"o":"m 627 378 l 627 690 l 339 962 l 51 690 l 51 378 l 59 370 l 619 370 l 627 378 m 59 309 l 51 300 l 51 -14 l -17 -14 l -17 717 l 315 1031 l 363 1031 l 695 717 l 695 -14 l 627 -14 l 627 300 l 619 309 l 59 309 m 526 1438 l 526 1072 l 153 1072 l 153 1438 l 526 1438 m 229 1377 l 220 1369 l 220 1141 l 229 1133 l 450 1133 l 458 1141 l 458 1369 l 450 1377 l 229 1377 z "},"Æ":{"ha":848,"x_min":-17,"x_max":712,"o":"m 305 378 l 305 930 l 51 690 l 51 378 l 59 370 l 297 370 l 305 378 m 305 -14 l 305 300 l 297 309 l 59 309 l 51 300 l 51 -14 l -17 -14 l -17 717 l 315 1031 l 695 1031 l 695 970 l 381 970 l 373 962 l 373 547 l 381 539 l 712 539 l 712 478 l 381 478 l 373 470 l 373 56 l 381 47 l 695 47 l 695 -14 l 305 -14 z "},"Ç":{"ha":848,"x_min":-17,"x_max":695,"o":"m 695 47 l 695 -14 l 373 -14 l 373 -22 l 212 -183 l -17 -183 l -17 -122 l 178 -122 l 287 -14 l -17 -14 l -17 1031 l 695 1031 l 695 970 l 58 970 l 50 962 l 50 56 l 59 47 l 695 47 z "},"È":{"ha":848,"x_min":-17,"x_max":695,"o":"m -17 -14 l -17 1031 l 695 1031 l 695 970 l 59 970 l 51 962 l 51 547 l 60 539 l 543 539 l 543 478 l 59 478 l 51 470 l 51 56 l 59 47 l 695 47 l 695 -14 l -17 -14 m 543 1072 l 484 1072 l 136 1402 l 136 1438 l 194 1438 l 543 1107 l 543 1072 z "},"É":{"ha":848,"x_min":-17,"x_max":695,"o":"m -17 -14 l -17 1031 l 695 1031 l 695 970 l 59 970 l 51 962 l 51 547 l 60 539 l 543 539 l 543 478 l 59 478 l 51 470 l 51 56 l 59 47 l 695 47 l 695 -14 l -17 -14 m 136 1107 l 484 1438 l 543 1438 l 543 1402 l 194 1072 l 136 1072 l 136 1107 z "},"Ê":{"ha":848,"x_min":-17,"x_max":695,"o":"m -17 -14 l -17 1031 l 695 1031 l 695 970 l 59 970 l 51 962 l 51 547 l 60 539 l 543 539 l 543 478 l 59 478 l 51 470 l 51 56 l 59 47 l 695 47 l 695 -14 l -17 -14 m 695 1072 l 636 1072 l 339 1369 l 42 1072 l -17 1072 l -17 1107 l 314 1438 l 364 1438 l 695 1107 l 695 1072 z "},"Ë":{"ha":848,"x_min":-17,"x_max":695,"o":"m -17 -14 l -17 1031 l 695 1031 l 695 970 l 59 970 l 51 962 l 51 547 l 60 539 l 543 539 l 543 478 l 59 478 l 51 470 l 51 56 l 59 47 l 695 47 l 695 -14 l -17 -14 m 526 1234 l 526 1139 l 458 1139 l 458 1234 l 526 1234 m 220 1234 l 220 1139 l 153 1139 l 153 1234 l 220 1234 z "},"Ì":{"ha":848,"x_min":-17,"x_max":695,"o":"m -17 970 l -17 1031 l 695 1031 l 695 970 l 381 970 l 373 962 l 373 56 l 381 47 l 695 47 l 695 -14 l -17 -14 l -17 47 l 297 47 l 305 56 l 305 962 l 297 970 l -17 970 m 543 1072 l 484 1072 l 136 1402 l 136 1438 l 194 1438 l 543 1107 l 543 1072 z "},"Í":{"ha":848,"x_min":-17,"x_max":695,"o":"m -17 970 l -17 1031 l 695 1031 l 695 970 l 381 970 l 373 962 l 373 56 l 381 47 l 695 47 l 695 -14 l -17 -14 l -17 47 l 297 47 l 305 56 l 305 962 l 297 970 l -17 970 m 136 1107 l 484 1438 l 543 1438 l 543 1402 l 194 1072 l 136 1072 l 136 1107 z "},"Î":{"ha":848,"x_min":-17,"x_max":695,"o":"m -17 970 l -17 1031 l 695 1031 l 695 970 l 381 970 l 373 962 l 373 56 l 381 47 l 695 47 l 695 -14 l -17 -14 l -17 47 l 297 47 l 305 56 l 305 962 l 297 970 l -17 970 m 695 1072 l 636 1072 l 339 1369 l 42 1072 l -17 1072 l -17 1107 l 314 1438 l 364 1438 l 695 1107 l 695 1072 z "},"Ï":{"ha":848,"x_min":-17,"x_max":695,"o":"m -17 970 l -17 1031 l 695 1031 l 695 970 l 381 970 l 373 962 l 373 56 l 381 47 l 695 47 l 695 -14 l -17 -14 l -17 47 l 297 47 l 305 56 l 305 962 l 297 970 l -17 970 m 526 1234 l 526 1139 l 458 1139 l 458 1234 l 526 1234 m 220 1234 l 220 1139 l 153 1139 l 153 1234 l 220 1234 z "},"Ð":{"ha":848,"x_min":-17,"x_max":695,"o":"m 51 55 l 60 47 l 305 47 l 305 39 l 627 361 l 627 709 l 606 709 l 315 970 l 58 970 l 50 962 l 50 556 l 42 556 l 59 539 l 373 539 l 373 478 l 59 478 l 51 470 l 51 55 m 695 334 l 347 -14 l -17 -14 l -17 1031 l 347 1031 l 695 717 l 695 334 z "},"Ñ":{"ha":848,"x_min":-17,"x_max":695,"o":"m 51 908 l 51 -14 l -17 -14 l -17 1031 l 61 1031 l 627 109 l 627 1031 l 695 1031 l 695 -14 l 617 -14 l 51 908 m 163 1377 l 59 1377 l 51 1369 l 51 1072 l -17 1072 l -17 1438 l 194 1438 l 515 1133 l 619 1133 l 627 1141 l 627 1438 l 695 1438 l 695 1072 l 484 1072 l 163 1377 z "},"Ò":{"ha":848,"x_min":-17,"x_max":695,"o":"m -17 -14 l -17 1031 l 695 1031 l 695 -14 l -17 -14 m 58 970 l 50 962 l 51 55 l 60 47 l 619 47 l 627 56 l 627 962 l 619 970 l 58 970 m 543 1072 l 484 1072 l 136 1402 l 136 1438 l 194 1438 l 543 1107 l 543 1072 z "},"Ó":{"ha":848,"x_min":-17,"x_max":695,"o":"m -17 -14 l -17 1031 l 695 1031 l 695 -14 l -17 -14 m 58 970 l 50 962 l 51 55 l 60 47 l 619 47 l 627 56 l 627 962 l 619 970 l 58 970 m 136 1107 l 484 1438 l 543 1438 l 543 1402 l 194 1072 l 136 1072 l 136 1107 z "},"Ô":{"ha":848,"x_min":-17,"x_max":695,"o":"m -17 -14 l -17 1031 l 695 1031 l 695 -14 l -17 -14 m 58 970 l 50 962 l 51 55 l 60 47 l 619 47 l 627 56 l 627 962 l 619 970 l 58 970 m 695 1072 l 636 1072 l 339 1369 l 42 1072 l -17 1072 l -17 1107 l 314 1438 l 364 1438 l 695 1107 l 695 1072 z "},"Õ":{"ha":848,"x_min":-17,"x_max":695,"o":"m -17 -14 l -17 1031 l 695 1031 l 695 -14 l -17 -14 m 58 970 l 50 962 l 51 55 l 60 47 l 619 47 l 627 56 l 627 962 l 619 970 l 58 970 m 163 1377 l 59 1377 l 51 1369 l 51 1072 l -17 1072 l -17 1438 l 194 1438 l 515 1133 l 619 1133 l 627 1141 l 627 1438 l 695 1438 l 695 1072 l 484 1072 l 163 1377 z "},"Ö":{"ha":848,"x_min":-17,"x_max":695,"o":"m -17 -14 l -17 1031 l 695 1031 l 695 -14 l -17 -14 m 58 970 l 50 962 l 51 55 l 60 47 l 619 47 l 627 56 l 627 962 l 619 970 l 58 970 m 526 1234 l 526 1139 l 458 1139 l 458 1234 l 526 1234 m 220 1234 l 220 1139 l 153 1139 l 153 1234 l 220 1234 z "},"×":{"ha":848,"x_min":-17,"x_max":695,"o":"m 298 509 l -17 997 l -17 1031 l 44 1031 l 339 572 l 634 1031 l 695 1031 l 695 997 l 380 509 l 695 20 l 695 -14 l 634 -14 l 339 445 l 44 -14 l -17 -14 l -17 20 l 298 509 z "},"Ø":{"ha":848,"x_min":-17,"x_max":695,"o":"m 595 970 l 58 970 l 50 962 l 51 125 l 595 970 m 83 47 l 619 47 l 627 56 l 627 891 l 83 47 m 695 -14 l -17 -14 l -17 1031 l 695 1031 l 695 -14 z "},"Ù":{"ha":848,"x_min":-17,"x_max":695,"o":"m 627 1031 l 695 1031 l 695 -14 l -17 -14 l -17 1031 l 51 1031 l 51 962 l 50 962 l 51 55 l 60 47 l 619 47 l 627 56 l 627 1031 m 543 1072 l 484 1072 l 136 1402 l 136 1438 l 194 1438 l 543 1107 l 543 1072 z "},"Ú":{"ha":848,"x_min":-17,"x_max":695,"o":"m 627 1031 l 695 1031 l 695 -14 l -17 -14 l -17 1031 l 51 1031 l 51 962 l 50 962 l 51 55 l 60 47 l 619 47 l 627 56 l 627 1031 m 136 1107 l 484 1438 l 543 1438 l 543 1402 l 194 1072 l 136 1072 l 136 1107 z "},"Û":{"ha":848,"x_min":-17,"x_max":695,"o":"m 627 1031 l 695 1031 l 695 -14 l -17 -14 l -17 1031 l 51 1031 l 51 962 l 50 962 l 51 55 l 60 47 l 619 47 l 627 56 l 627 1031 m 695 1072 l 636 1072 l 339 1369 l 42 1072 l -17 1072 l -17 1107 l 314 1438 l 364 1438 l 695 1107 l 695 1072 z "},"Ü":{"ha":848,"x_min":-17,"x_max":695,"o":"m 627 1031 l 695 1031 l 695 -14 l -17 -14 l -17 1031 l 51 1031 l 51 962 l 50 962 l 51 55 l 60 47 l 619 47 l 627 56 l 627 1031 m 526 1234 l 526 1139 l 458 1139 l 458 1234 l 526 1234 m 220 1234 l 220 1139 l 153 1139 l 153 1234 l 220 1234 z "},"Ý":{"ha":848,"x_min":-17,"x_max":695,"o":"m -17 996 l -17 1031 l 42 1031 l 339 734 l 636 1031 l 695 1031 l 695 996 l 373 673 l 373 -14 l 305 -14 l 305 673 l -17 996 m 136 1107 l 484 1438 l 543 1438 l 543 1402 l 194 1072 l 136 1072 l 136 1107 z "},"Þ":{"ha":848,"x_min":-17,"x_max":695,"o":"m 59 682 l 51 673 l 51 378 l 60 370 l 619 370 l 627 378 l 627 673 l 620 682 l 59 682 m 59 743 l 695 743 l 695 309 l 59 309 l 51 300 l 51 -14 l -17 -14 l -17 1031 l 51 1031 l 51 751 l 59 743 z "},"ß":{"ha":848,"x_min":-17,"x_max":695,"o":"m 51 -14 l -17 -14 l -17 1031 l 534 1031 l 695 869 l 695 640 l 564 509 l 695 378 l 695 148 l 534 -14 l 305 -14 l 305 47 l 500 47 l 627 174 l 627 351 l 500 478 l 305 478 l 305 539 l 500 539 l 627 666 l 627 843 l 500 970 l 59 970 l 51 962 l 51 -14 z "},"à":{"ha":848,"x_min":-17,"x_max":695,"o":"m 627 378 l 627 690 l 339 962 l 51 690 l 51 378 l 59 370 l 619 370 l 627 378 m 59 309 l 51 300 l 51 -14 l -17 -14 l -17 717 l 315 1031 l 363 1031 l 695 717 l 695 -14 l 627 -14 l 627 300 l 619 309 l 59 309 m 543 1072 l 484 1072 l 136 1402 l 136 1438 l 194 1438 l 543 1107 l 543 1072 z "},"á":{"ha":848,"x_min":-17,"x_max":695,"o":"m 627 378 l 627 690 l 339 962 l 51 690 l 51 378 l 59 370 l 619 370 l 627 378 m 59 309 l 51 300 l 51 -14 l -17 -14 l -17 717 l 315 1031 l 363 1031 l 695 717 l 695 -14 l 627 -14 l 627 300 l 619 309 l 59 309 m 136 1107 l 484 1438 l 543 1438 l 543 1402 l 194 1072 l 136 1072 l 136 1107 z "},"â":{"ha":848,"x_min":-17,"x_max":695,"o":"m 627 378 l 627 690 l 339 962 l 51 690 l 51 378 l 59 370 l 619 370 l 627 378 m 59 309 l 51 300 l 51 -14 l -17 -14 l -17 717 l 315 1031 l 363 1031 l 695 717 l 695 -14 l 627 -14 l 627 300 l 619 309 l 59 309 m 695 1072 l 636 1072 l 339 1369 l 42 1072 l -17 1072 l -17 1107 l 314 1438 l 364 1438 l 695 1107 l 695 1072 z "},"ã":{"ha":848,"x_min":-17,"x_max":695,"o":"m 627 378 l 627 690 l 339 962 l 51 690 l 51 378 l 59 370 l 619 370 l 627 378 m 59 309 l 51 300 l 51 -14 l -17 -14 l -17 717 l 315 1031 l 363 1031 l 695 717 l 695 -14 l 627 -14 l 627 300 l 619 309 l 59 309 m 163 1377 l 59 1377 l 51 1369 l 51 1072 l -17 1072 l -17 1438 l 194 1438 l 515 1133 l 619 1133 l 627 1141 l 627 1438 l 695 1438 l 695 1072 l 484 1072 l 163 1377 z "},"ä":{"ha":848,"x_min":-17,"x_max":695,"o":"m 627 378 l 627 690 l 339 962 l 51 690 l 51 378 l 59 370 l 619 370 l 627 378 m 59 309 l 51 300 l 51 -14 l -17 -14 l -17 717 l 315 1031 l 363 1031 l 695 717 l 695 -14 l 627 -14 l 627 300 l 619 309 l 59 309 m 526 1234 l 526 1139 l 458 1139 l 458 1234 l 526 1234 m 220 1234 l 220 1139 l 153 1139 l 153 1234 l 220 1234 z "},"å":{"ha":848,"x_min":-17,"x_max":695,"o":"m 627 378 l 627 690 l 339 962 l 51 690 l 51 378 l 59 370 l 619 370 l 627 378 m 59 309 l 51 300 l 51 -14 l -17 -14 l -17 717 l 315 1031 l 363 1031 l 695 717 l 695 -14 l 627 -14 l 627 300 l 619 309 l 59 309 m 526 1438 l 526 1072 l 153 1072 l 153 1438 l 526 1438 m 229 1377 l 220 1369 l 220 1141 l 229 1133 l 450 1133 l 458 1141 l 458 1369 l 450 1377 l 229 1377 z "},"æ":{"ha":848,"x_min":-17,"x_max":712,"o":"m 305 378 l 305 930 l 51 690 l 51 378 l 59 370 l 297 370 l 305 378 m 305 -14 l 305 300 l 297 309 l 59 309 l 51 300 l 51 -14 l -17 -14 l -17 717 l 315 1031 l 695 1031 l 695 970 l 381 970 l 373 962 l 373 547 l 381 539 l 712 539 l 712 478 l 381 478 l 373 470 l 373 56 l 381 47 l 695 47 l 695 -14 l 305 -14 z "},"ç":{"ha":848,"x_min":-17,"x_max":695,"o":"m 695 47 l 695 -14 l 373 -14 l 373 -22 l 212 -183 l -17 -183 l -17 -122 l 178 -122 l 287 -14 l -17 -14 l -17 1031 l 695 1031 l 695 970 l 58 970 l 50 962 l 50 56 l 59 47 l 695 47 z "},"è":{"ha":848,"x_min":-17,"x_max":695,"o":"m -17 -14 l -17 1031 l 695 1031 l 695 970 l 59 970 l 51 962 l 51 547 l 60 539 l 543 539 l 543 478 l 59 478 l 51 470 l 51 56 l 59 47 l 695 47 l 695 -14 l -17 -14 m 543 1072 l 484 1072 l 136 1402 l 136 1438 l 194 1438 l 543 1107 l 543 1072 z "},"é":{"ha":848,"x_min":-17,"x_max":695,"o":"m -17 -14 l -17 1031 l 695 1031 l 695 970 l 59 970 l 51 962 l 51 547 l 60 539 l 543 539 l 543 478 l 59 478 l 51 470 l 51 56 l 59 47 l 695 47 l 695 -14 l -17 -14 m 136 1107 l 484 1438 l 543 1438 l 543 1402 l 194 1072 l 136 1072 l 136 1107 z "},"ê":{"ha":848,"x_min":-17,"x_max":695,"o":"m -17 -14 l -17 1031 l 695 1031 l 695 970 l 59 970 l 51 962 l 51 547 l 60 539 l 543 539 l 543 478 l 59 478 l 51 470 l 51 56 l 59 47 l 695 47 l 695 -14 l -17 -14 m 695 1072 l 636 1072 l 339 1369 l 42 1072 l -17 1072 l -17 1107 l 314 1438 l 364 1438 l 695 1107 l 695 1072 z "},"ë":{"ha":848,"x_min":-17,"x_max":695,"o":"m -17 -14 l -17 1031 l 695 1031 l 695 970 l 59 970 l 51 962 l 51 547 l 60 539 l 543 539 l 543 478 l 59 478 l 51 470 l 51 56 l 59 47 l 695 47 l 695 -14 l -17 -14 m 526 1234 l 526 1139 l 458 1139 l 458 1234 l 526 1234 m 220 1234 l 220 1139 l 153 1139 l 153 1234 l 220 1234 z "},"ì":{"ha":848,"x_min":-17,"x_max":695,"o":"m -17 970 l -17 1031 l 695 1031 l 695 970 l 381 970 l 373 962 l 373 56 l 381 47 l 695 47 l 695 -14 l -17 -14 l -17 47 l 297 47 l 305 56 l 305 962 l 297 970 l -17 970 m 543 1072 l 484 1072 l 136 1402 l 136 1438 l 194 1438 l 543 1107 l 543 1072 z "},"í":{"ha":848,"x_min":-17,"x_max":695,"o":"m -17 970 l -17 1031 l 695 1031 l 695 970 l 381 970 l 373 962 l 373 56 l 381 47 l 695 47 l 695 -14 l -17 -14 l -17 47 l 297 47 l 305 56 l 305 962 l 297 970 l -17 970 m 136 1107 l 484 1438 l 543 1438 l 543 1402 l 194 1072 l 136 1072 l 136 1107 z "},"î":{"ha":848,"x_min":-17,"x_max":695,"o":"m -17 970 l -17 1031 l 695 1031 l 695 970 l 381 970 l 373 962 l 373 56 l 381 47 l 695 47 l 695 -14 l -17 -14 l -17 47 l 297 47 l 305 56 l 305 962 l 297 970 l -17 970 m 695 1072 l 636 1072 l 339 1369 l 42 1072 l -17 1072 l -17 1107 l 314 1438 l 364 1438 l 695 1107 l 695 1072 z "},"ï":{"ha":848,"x_min":-17,"x_max":695,"o":"m -17 970 l -17 1031 l 695 1031 l 695 970 l 381 970 l 373 962 l 373 56 l 381 47 l 695 47 l 695 -14 l -17 -14 l -17 47 l 297 47 l 305 56 l 305 962 l 297 970 l -17 970 m 526 1234 l 526 1139 l 458 1139 l 458 1234 l 526 1234 m 220 1234 l 220 1139 l 153 1139 l 153 1234 l 220 1234 z "},"ð":{"ha":848,"x_min":-17,"x_max":695,"o":"m 51 55 l 60 47 l 305 47 l 305 39 l 627 361 l 627 709 l 606 709 l 315 970 l 58 970 l 50 962 l 50 556 l 42 556 l 59 539 l 373 539 l 373 478 l 59 478 l 51 470 l 51 55 m 695 334 l 347 -14 l -17 -14 l -17 1031 l 347 1031 l 695 717 l 695 334 z "},"ñ":{"ha":848,"x_min":-17,"x_max":695,"o":"m 51 908 l 51 -14 l -17 -14 l -17 1031 l 61 1031 l 627 109 l 627 1031 l 695 1031 l 695 -14 l 617 -14 l 51 908 m 163 1377 l 59 1377 l 51 1369 l 51 1072 l -17 1072 l -17 1438 l 194 1438 l 515 1133 l 619 1133 l 627 1141 l 627 1438 l 695 1438 l 695 1072 l 484 1072 l 163 1377 z "},"ò":{"ha":848,"x_min":-17,"x_max":695,"o":"m -17 -14 l -17 1031 l 695 1031 l 695 -14 l -17 -14 m 58 970 l 50 962 l 51 55 l 60 47 l 619 47 l 627 56 l 627 962 l 619 970 l 58 970 m 543 1072 l 484 1072 l 136 1402 l 136 1438 l 194 1438 l 543 1107 l 543 1072 z "},"ó":{"ha":848,"x_min":-17,"x_max":695,"o":"m -17 -14 l -17 1031 l 695 1031 l 695 -14 l -17 -14 m 58 970 l 50 962 l 51 55 l 60 47 l 619 47 l 627 56 l 627 962 l 619 970 l 58 970 m 136 1107 l 484 1438 l 543 1438 l 543 1402 l 194 1072 l 136 1072 l 136 1107 z "},"ô":{"ha":848,"x_min":-17,"x_max":695,"o":"m -17 -14 l -17 1031 l 695 1031 l 695 -14 l -17 -14 m 58 970 l 50 962 l 51 55 l 60 47 l 619 47 l 627 56 l 627 962 l 619 970 l 58 970 m 695 1072 l 636 1072 l 339 1369 l 42 1072 l -17 1072 l -17 1107 l 314 1438 l 364 1438 l 695 1107 l 695 1072 z "},"õ":{"ha":848,"x_min":-17,"x_max":695,"o":"m -17 -14 l -17 1031 l 695 1031 l 695 -14 l -17 -14 m 58 970 l 50 962 l 51 55 l 60 47 l 619 47 l 627 56 l 627 962 l 619 970 l 58 970 m 163 1377 l 59 1377 l 51 1369 l 51 1072 l -17 1072 l -17 1438 l 194 1438 l 515 1133 l 619 1133 l 627 1141 l 627 1438 l 695 1438 l 695 1072 l 484 1072 l 163 1377 z "},"ö":{"ha":848,"x_min":-17,"x_max":695,"o":"m -17 -14 l -17 1031 l 695 1031 l 695 -14 l -17 -14 m 58 970 l 50 962 l 51 55 l 60 47 l 619 47 l 627 56 l 627 962 l 619 970 l 58 970 m 526 1234 l 526 1139 l 458 1139 l 458 1234 l 526 1234 m 220 1234 l 220 1139 l 153 1139 l 153 1234 l 220 1234 z "},"÷":{"ha":848,"x_min":-17,"x_max":695,"o":"m 695 539 l 695 478 l -17 478 l -17 539 l 695 539 m 373 319 l 373 224 l 305 224 l 305 319 l 373 319 m 373 793 l 373 699 l 305 699 l 305 793 l 373 793 z "},"ø":{"ha":848,"x_min":-17,"x_max":695,"o":"m 595 970 l 58 970 l 50 962 l 51 125 l 595 970 m 83 47 l 619 47 l 627 56 l 627 891 l 83 47 m 695 -14 l -17 -14 l -17 1031 l 695 1031 l 695 -14 z "},"ù":{"ha":848,"x_min":-17,"x_max":695,"o":"m 627 1031 l 695 1031 l 695 -14 l -17 -14 l -17 1031 l 51 1031 l 51 962 l 50 962 l 51 55 l 60 47 l 619 47 l 627 56 l 627 1031 m 543 1072 l 484 1072 l 136 1402 l 136 1438 l 194 1438 l 543 1107 l 543 1072 z "},"ú":{"ha":848,"x_min":-17,"x_max":695,"o":"m 627 1031 l 695 1031 l 695 -14 l -17 -14 l -17 1031 l 51 1031 l 51 962 l 50 962 l 51 55 l 60 47 l 619 47 l 627 56 l 627 1031 m 136 1107 l 484 1438 l 543 1438 l 543 1402 l 194 1072 l 136 1072 l 136 1107 z "},"û":{"ha":848,"x_min":-17,"x_max":695,"o":"m 627 1031 l 695 1031 l 695 -14 l -17 -14 l -17 1031 l 51 1031 l 51 962 l 50 962 l 51 55 l 60 47 l 619 47 l 627 56 l 627 1031 m 695 1072 l 636 1072 l 339 1369 l 42 1072 l -17 1072 l -17 1107 l 314 1438 l 364 1438 l 695 1107 l 695 1072 z "},"ü":{"ha":848,"x_min":-17,"x_max":695,"o":"m 627 1031 l 695 1031 l 695 -14 l -17 -14 l -17 1031 l 51 1031 l 51 962 l 50 962 l 51 55 l 60 47 l 619 47 l 627 56 l 627 1031 m 526 1234 l 526 1139 l 458 1139 l 458 1234 l 526 1234 m 220 1234 l 220 1139 l 153 1139 l 153 1234 l 220 1234 z "},"ý":{"ha":848,"x_min":-17,"x_max":695,"o":"m -17 996 l -17 1031 l 42 1031 l 339 734 l 636 1031 l 695 1031 l 695 996 l 373 673 l 373 -14 l 305 -14 l 305 673 l -17 996 m 136 1107 l 484 1438 l 543 1438 l 543 1402 l 194 1072 l 136 1072 l 136 1107 z "},"þ":{"ha":848,"x_min":-17,"x_max":695,"o":"m 59 682 l 51 673 l 51 378 l 60 370 l 619 370 l 627 378 l 627 673 l 620 682 l 59 682 m 59 743 l 695 743 l 695 309 l 59 309 l 51 300 l 51 -14 l -17 -14 l -17 1031 l 51 1031 l 51 751 l 59 743 z "},"ÿ":{"ha":848,"x_min":-17,"x_max":695,"o":"m -17 996 l -17 1031 l 42 1031 l 339 734 l 636 1031 l 695 1031 l 695 996 l 373 673 l 373 -14 l 305 -14 l 305 673 l -17 996 m 526 1234 l 526 1139 l 458 1139 l 458 1234 l 526 1234 m 220 1234 l 220 1139 l 153 1139 l 153 1234 l 220 1234 z "},"ı":{"ha":848,"x_min":-17,"x_max":695,"o":"m -17 970 l -17 1031 l 695 1031 l 695 970 l 381 970 l 373 962 l 373 56 l 381 47 l 695 47 l 695 -14 l -17 -14 l -17 47 l 297 47 l 305 56 l 305 962 l 297 970 l -17 970 z "},"ˆ":{"ha":848,"x_min":-17,"x_max":695,"o":"m 695 1072 l 636 1072 l 339 1369 l 42 1072 l -17 1072 l -17 1107 l 314 1438 l 364 1438 l 695 1107 l 695 1072 z "},"ˇ":{"ha":848,"x_min":-17,"x_max":695,"o":"m 695 1402 l 364 1072 l 314 1072 l -17 1402 l -17 1438 l 42 1438 l 339 1141 l 636 1438 l 695 1438 l 695 1402 z "},"ˉ":{"ha":694,"x_min":155,"x_max":539,"o":"m 155 797 l 155 909 l 539 909 l 539 797 l 155 797 z "},"˘":{"ha":694,"x_min":130,"x_max":564,"o":"m 130 928 l 197 928 q 244 853 210 873 q 347 833 279 833 q 449 852 416 833 q 496 928 483 872 l 564 928 q 493 769 547 819 q 347 718 438 718 q 202 769 257 718 q 130 928 146 820 z "},"˙":{"ha":694,"x_min":260,"x_max":439,"o":"m 273 883 l 319 931 q 334 941 326 938 q 351 945 342 945 q 367 941 359 945 q 382 931 375 937 l 429 880 q 437 869 435 876 q 439 854 439 862 q 437 841 439 847 q 429 829 435 835 l 380 777 q 365 764 370 768 q 351 761 359 761 q 332 764 340 761 q 319 775 323 768 l 269 833 q 262 843 264 838 q 260 857 260 849 q 263 869 260 863 q 273 883 266 876 z "},"˚":{"ha":848,"x_min":153,"x_max":526,"o":"m 526 1438 l 526 1072 l 153 1072 l 153 1438 l 526 1438 m 229 1377 l 220 1369 l 220 1141 l 229 1133 l 450 1133 l 458 1141 l 458 1369 l 450 1377 l 229 1377 z "},"˛":{"ha":694,"x_min":233,"x_max":521,"o":"m 473 14 q 374 -87 399 -50 q 349 -157 349 -123 q 363 -199 349 -184 q 400 -214 377 -214 q 438 -205 422 -214 q 474 -163 454 -197 l 521 -190 q 448 -272 489 -246 q 357 -297 407 -297 q 268 -269 303 -297 q 233 -198 233 -241 q 277 -85 233 -143 q 396 14 320 -28 l 473 14 z "},"˜":{"ha":848,"x_min":-17,"x_max":695,"o":"m 163 1377 l 59 1377 l 51 1369 l 51 1072 l -17 1072 l -17 1438 l 194 1438 l 515 1133 l 619 1133 l 627 1141 l 627 1438 l 695 1438 l 695 1072 l 484 1072 l 163 1377 z "},"˝":{"ha":694,"x_min":121,"x_max":564,"o":"m 121 718 l 229 922 q 265 970 247 954 q 307 986 283 986 q 352 968 334 986 q 370 927 370 950 q 362 899 370 913 q 339 867 354 884 l 195 718 l 121 718 m 315 718 l 422 922 q 458 970 440 954 q 500 986 476 986 q 546 968 528 986 q 564 927 564 950 q 555 899 564 913 q 532 867 547 884 l 388 718 l 315 718 z "},"–":{"ha":848,"x_min":-17,"x_max":695,"o":"m 695 539 l 695 478 l -17 478 l -17 539 l 695 539 z "},"—":{"ha":848,"x_min":-17,"x_max":695,"o":"m 695 539 l 695 478 l -17 478 l -17 539 l 695 539 z "},"‘":{"ha":848,"x_min":254,"x_max":373,"o":"m 373 902 l 373 868 l 313 868 l 254 946 l 254 1031 l 322 1031 l 322 970 l 373 902 z "},"’":{"ha":848,"x_min":254,"x_max":373,"o":"m 305 970 l 305 1031 l 373 1031 l 373 946 l 315 868 l 254 868 l 254 902 l 305 970 z "},"‚":{"ha":848,"x_min":254,"x_max":373,"o":"m 305 20 l 305 81 l 373 81 l 373 -3 l 315 -81 l 254 -81 l 254 -47 l 305 20 z "},"“":{"ha":848,"x_min":119,"x_max":509,"o":"m 237 902 l 237 868 l 177 868 l 119 946 l 119 1031 l 186 1031 l 186 970 l 237 902 m 509 902 l 509 868 l 448 868 l 390 946 l 390 1031 l 458 1031 l 458 970 l 509 902 z "},"”":{"ha":848,"x_min":119,"x_max":509,"o":"m 441 970 l 441 1031 l 509 1031 l 509 946 l 450 868 l 390 868 l 390 902 l 441 970 m 170 970 l 170 1031 l 237 1031 l 237 946 l 179 868 l 119 868 l 119 902 l 170 970 z "},"„":{"ha":848,"x_min":119,"x_max":509,"o":"m 441 20 l 441 81 l 509 81 l 509 -3 l 450 -81 l 390 -81 l 390 -47 l 441 20 m 170 20 l 170 81 l 237 81 l 237 -3 l 179 -81 l 119 -81 l 119 -47 l 170 20 z "},"†":{"ha":688,"x_min":31,"x_max":657,"o":"m 311 709 q 277 808 307 755 q 237 901 237 880 q 267 964 237 940 q 344 988 296 988 q 420 966 389 988 q 450 907 450 943 q 412 809 450 883 q 377 708 382 753 q 469 741 418 711 q 566 782 542 782 q 633 753 608 782 q 657 679 657 724 q 635 606 657 637 q 572 576 612 576 q 471 615 546 576 q 376 650 416 645 q 452 481 381 551 q 374 -197 378 164 l 315 -197 q 236 481 311 164 q 312 650 307 551 q 218 617 271 646 q 121 576 146 576 q 55 605 79 576 q 31 679 31 634 q 54 751 31 721 q 115 782 76 782 q 218 742 142 782 q 311 709 272 712 z "},"‡":{"ha":688,"x_min":31,"x_max":656,"o":"m 376 142 q 470 176 416 146 q 572 216 545 216 q 634 185 612 216 q 656 113 656 155 q 632 39 656 68 q 566 9 608 9 q 469 51 541 9 q 376 83 417 80 q 411 -18 381 38 q 450 -116 450 -92 q 419 -174 450 -152 q 343 -197 389 -197 q 266 -173 296 -197 q 237 -110 237 -149 q 277 -17 237 -88 q 311 83 307 36 q 217 50 271 79 q 115 9 141 9 q 53 40 75 9 q 31 113 31 71 q 55 186 31 157 q 121 216 79 216 q 218 174 145 216 q 311 142 270 146 q 235 396 306 276 q 311 650 306 515 q 218 617 270 646 q 121 576 145 576 q 55 605 79 576 q 31 679 31 634 q 53 751 31 721 q 115 782 75 782 q 217 742 141 782 q 311 709 271 712 q 277 808 307 755 q 237 901 237 880 q 266 964 237 940 q 343 988 296 988 q 419 966 389 988 q 450 907 450 943 q 411 809 450 883 q 376 708 381 753 q 469 741 417 711 q 566 782 541 782 q 632 753 608 782 q 656 679 656 724 q 634 606 656 637 q 572 576 612 576 q 470 615 545 576 q 376 650 416 645 q 452 396 380 515 q 376 142 380 276 z "},"•":{"ha":694,"x_min":130,"x_max":565,"o":"m 130 487 q 193 638 130 575 q 348 701 256 701 q 502 637 439 701 q 565 487 565 574 q 501 336 565 399 q 347 272 437 272 q 192 335 255 272 q 130 487 130 399 z "},"…":{"ha":848,"x_min":-17,"x_max":695,"o":"m 373 81 l 373 -14 l 305 -14 l 305 81 l 373 81 m 695 81 l 695 -14 l 627 -14 l 627 81 l 695 81 m 51 81 l 51 -14 l -17 -14 l -17 81 l 51 81 z "},"‹":{"ha":848,"x_min":-24,"x_max":695,"o":"m -24 526 l 637 1031 l 695 1031 l 695 995 l 75 526 l 695 22 l 695 -14 l 637 -14 l -24 526 z "},"›":{"ha":848,"x_min":-17,"x_max":702,"o":"m 41 -14 l -17 -14 l -17 22 l 603 526 l -17 995 l -17 1031 l 41 1031 l 702 526 l 41 -14 z "},"⁄":{"ha":848,"x_min":-17,"x_max":695,"o":"m 634 1031 l 695 1031 l 695 997 l 44 -14 l -17 -14 l -17 20 l 634 1031 z "},"₣":{"ha":848,"x_min":-17,"x_max":695,"o":"m 51 131 l 51 -14 l -17 -14 l -17 1031 l 695 1031 l 695 970 l 59 970 l 51 962 l 51 547 l 60 539 l 543 539 l 543 478 l 59 478 l 51 470 l 51 208 l 59 200 l 373 200 l 373 139 l 59 139 l 51 131 z "},"₤":{"ha":848,"x_min":-17,"x_max":695,"o":"m 305 547 l 305 1031 l 695 1031 l 695 970 l 381 970 l 373 962 l 373 547 l 382 539 l 543 539 l 543 478 l 381 478 l 373 470 l 373 56 l 381 47 l 695 47 l 695 -14 l -17 -14 l -17 47 l 297 47 l 305 56 l 305 470 l 297 478 l 136 478 l 136 539 l 297 539 l 305 547 z "},"₧":{"ha":848,"x_min":-17,"x_max":695,"o":"m 59 970 l 51 962 l 51 547 l 60 539 l 619 539 l 627 548 l 627 962 l 620 970 l 59 970 m 51 131 l 51 -14 l -17 -14 l -17 1031 l 695 1031 l 695 478 l 59 478 l 51 470 l 51 208 l 59 200 l 373 200 l 373 139 l 59 139 l 51 131 z "},"€":{"ha":848,"x_min":-17,"x_max":695,"o":"m 86 326 l 373 39 l 373 47 l 618 47 l 619 47 l 695 47 l 695 -14 l 331 -14 l -17 334 l -17 717 l 332 1031 l 695 1031 l 695 970 l 363 970 l 91 726 l 695 726 l 695 665 l 52 665 l 51 387 l 695 387 l 695 326 l 86 326 z "},"№":{"ha":932,"x_min":-17,"x_max":780,"o":"m 34 934 l 34 495 l -17 495 l -17 1031 l 36 1031 l 305 593 l 305 1031 l 356 1031 l 356 495 l 304 495 l 34 934 m 729 987 l 458 987 l 458 539 l 729 539 l 729 987 m 407 495 l 407 1031 l 780 1031 l 780 495 l 407 495 z "},"™":{"ha":932,"x_min":-17,"x_max":780,"o":"m 780 495 l 729 495 l 729 954 l 610 834 l 577 834 l 458 954 l 458 495 l 407 495 l 407 1031 l 449 1031 l 593 886 l 738 1031 l 780 1031 l 780 495 m 144 987 l -17 987 l -17 1031 l 356 1031 l 356 987 l 195 987 l 195 495 l 144 495 l 144 987 z "},"∂":{"ha":1119,"x_min":0,"x_max":1017,"o":"m 136 0 q 0 136 0 0 l 0 882 q 136 1017 0 1017 l 882 1017 q 1017 882 1017 1017 l 1017 136 q 882 0 1017 0 l 136 0 m 882 17 q 1000 136 1000 17 l 1000 882 q 882 1000 1000 1000 l 136 1000 q 17 882 18 1000 l 17 136 q 136 17 18 17 l 882 17 z "},"∆":{"ha":1119,"x_min":0,"x_max":1017,"o":"m 136 0 q 0 136 0 0 l 0 882 q 136 1017 0 1017 l 882 1017 q 1017 882 1017 1017 l 1017 136 q 882 0 1017 0 l 136 0 m 882 17 q 1000 136 1000 17 l 1000 882 q 882 1000 1000 1000 l 136 1000 q 17 882 18 1000 l 17 136 q 136 17 18 17 l 882 17 z "},"∏":{"ha":1119,"x_min":0,"x_max":1017,"o":"m 136 0 q 0 136 0 0 l 0 882 q 136 1017 0 1017 l 882 1017 q 1017 882 1017 1017 l 1017 136 q 882 0 1017 0 l 136 0 m 882 17 q 1000 136 1000 17 l 1000 882 q 882 1000 1000 1000 l 136 1000 q 17 882 18 1000 l 17 136 q 136 17 18 17 l 882 17 z "},"∑":{"ha":1119,"x_min":0,"x_max":1017,"o":"m 136 0 q 0 136 0 0 l 0 882 q 136 1017 0 1017 l 882 1017 q 1017 882 1017 1017 l 1017 136 q 882 0 1017 0 l 136 0 m 882 17 q 1000 136 1000 17 l 1000 882 q 882 1000 1000 1000 l 136 1000 q 17 882 18 1000 l 17 136 q 136 17 18 17 l 882 17 z "},"−":{"ha":848,"x_min":-17,"x_max":695,"o":"m 695 539 l 695 478 l -17 478 l -17 539 l 695 539 z "},"≈":{"ha":1119,"x_min":0,"x_max":1017,"o":"m 136 0 q 0 136 0 0 l 0 882 q 136 1017 0 1017 l 882 1017 q 1017 882 1017 1017 l 1017 136 q 882 0 1017 0 l 136 0 m 882 17 q 1000 136 1000 17 l 1000 882 q 882 1000 1000 1000 l 136 1000 q 17 882 18 1000 l 17 136 q 136 17 18 17 l 882 17 z "},"≤":{"ha":1119,"x_min":0,"x_max":1017,"o":"m 136 0 q 0 136 0 0 l 0 882 q 136 1017 0 1017 l 882 1017 q 1017 882 1017 1017 l 1017 136 q 882 0 1017 0 l 136 0 m 882 17 q 1000 136 1000 17 l 1000 882 q 882 1000 1000 1000 l 136 1000 q 17 882 18 1000 l 17 136 q 136 17 18 17 l 882 17 z "},"≥":{"ha":1119,"x_min":0,"x_max":1017,"o":"m 136 0 q 0 136 0 0 l 0 882 q 136 1017 0 1017 l 882 1017 q 1017 882 1017 1017 l 1017 136 q 882 0 1017 0 l 136 0 m 882 17 q 1000 136 1000 17 l 1000 882 q 882 1000 1000 1000 l 136 1000 q 17 882 18 1000 l 17 136 q 136 17 18 17 l 882 17 z "},"":{"ha":728,"x_min":0,"x_max":0,"o":""},"":{"ha":733,"x_min":0,"x_max":0,"o":""},"Œ":{"ha":848,"x_min":-17,"x_max":712,"o":"m 305 56 l 305 962 l 297 970 l 59 970 l 51 962 l 51 56 l 59 47 l 297 47 l 305 56 m -17 -14 l -17 1031 l 695 1031 l 695 970 l 381 970 l 373 962 l 373 547 l 381 539 l 712 539 l 712 478 l 381 478 l 373 470 l 373 56 l 381 47 l 695 47 l 695 -14 l -17 -14 z "},"œ":{"ha":848,"x_min":-17,"x_max":712,"o":"m 305 56 l 305 962 l 297 970 l 59 970 l 51 962 l 51 56 l 59 47 l 297 47 l 305 56 m -17 -14 l -17 1031 l 695 1031 l 695 970 l 381 970 l 373 962 l 373 547 l 381 539 l 712 539 l 712 478 l 381 478 l 373 470 l 373 56 l 381 47 l 695 47 l 695 -14 l -17 -14 z "},"‰":{"ha":1153,"x_min":-17,"x_max":1000,"o":"m 634 1031 l 695 1031 l 695 997 l 44 -14 l -17 -14 l -17 20 l 634 1031 m 356 1031 l 356 665 l -17 665 l -17 1031 l 356 1031 m 59 970 l 51 962 l 51 734 l 59 726 l 280 726 l 288 734 l 288 962 l 280 970 l 59 970 m 398 292 l 390 283 l 390 56 l 398 47 l 619 47 l 627 56 l 627 283 l 619 292 l 398 292 m 695 283 l 695 56 l 703 47 l 924 47 l 932 56 l 932 283 l 924 292 l 703 292 l 695 283 m 322 -14 l 322 353 l 1000 353 l 1000 -14 l 322 -14 z "}}}
